<svg xmlns="http://www.w3.org/2000/svg" version="1.1" xmlns:xlink="http://www.w3.org/1999/xlink" xmlns:svgjs="http://svgjs.dev/svgjs" width="2000" height="1500" viewBox="0 0 2000 1500"><rect width="2000" height="1500" fill="#8b5cf6"></rect><g transform="matrix(0.75,0,0,0.75,249.0909188307454,591.9762821538151)"><svg viewBox="0 0 396 83" data-background-color="#8b5cf6" preserveAspectRatio="xMidYMid meet" height="419" width="2000" xmlns="http://www.w3.org/2000/svg" xmlns:xlink="http://www.w3.org/1999/xlink"><g id="tight-bounds" transform="matrix(1,0,0,1,0.23999743121248684,0.2373703672546128)"><svg viewBox="0 0 395.52 82.52525944584528" height="82.52525944584528" width="395.52"><g><svg viewBox="0 0 533.3863476325054 111.2910768690441" height="82.52525944584528" width="395.52"><g transform="matrix(1,0,0,1,0,28.802538707304475)"><svg viewBox="0 0 397.4975999999999 53.685999454435155" height="53.685999454435155" width="397.4975999999999"><g id="textblocktransform"><svg viewBox="0 0 397.4975999999999 53.685999454435155" height="53.685999454435155" width="397.4975999999999" id="textblock"><g><rect width="397.4975999999999" height="2.8202303174854513" x="0" y="34.59524868909533" fill="#ffffff" opacity="1" stroke-width="0" stroke="transparent" fill-opacity="1" class="rect-o-0" data-fill-palette-color="primary" rx="1%" id="o-0" data-palette-color="#ffffff"></rect></g><g transform="matrix(1,0,0,1,0.9887999999999693,0)"><svg viewBox="0 0 395.52 31.272987843889954" height="31.272987843889954" width="395.52"><g transform="matrix(1,0,0,1,0,0)"><svg width="395.52" viewBox="2.049999952316284 -35.45000076293945 457.8800048828125 36.209999084472656" height="31.272987843889954" data-palette-color="#ffffff"><path d="M23.36-8.23L22.07-12.5 28.64-34.69 39.6-34.69 39.6-33.25Q39.01-32.96 38.43-32.8 37.84-32.64 37.38-32.42L37.38-32.42Q36.35-31.88 36.35-30.59L36.35-30.59 36.35-4.49Q36.35-2.98 37.4-2.39L37.4-2.39Q37.87-2.12 38.48-1.93 39.09-1.73 39.77-1.44L39.77-1.44 39.77 0 27 0 27-1.44Q27.59-1.73 28.16-1.93 28.74-2.12 29.2-2.39L29.2-2.39Q30.25-3 30.25-4.49L30.25-4.49 30.25-31.2 30.15-31.2 23.36-8.23ZM5.47-29.88L8.25-28.83 8.25-5.2Q8.25-3.3 9.38-2.51L9.38-2.51Q9.89-2.17 10.53-1.97 11.18-1.76 11.84-1.44L11.84-1.44 11.84 0 2.05 0 2.05-1.44Q2.64-1.73 3.25-1.92 3.86-2.1 4.35-2.44L4.35-2.44Q5.47-3.2 5.47-5.15L5.47-5.15 5.47-29.88ZM18.04 0L8.35-30.69Q3.2-32.67 2.05-33.25L2.05-33.25 2.05-34.69 13.06-34.69 22.41-5.03 20.92 0 18.04 0ZM60.64-16.72L59.18-19.34Q63.91-28.56 64.26-29.44L64.26-29.44Q64.67-30.54 64.67-31.09 64.67-31.64 64.35-31.97 64.04-32.3 63.56-32.48 63.08-32.67 62.5-32.8 61.91-32.93 61.4-33.15L61.4-33.15 61.4-34.69 71.9-34.69 71.9-33.15Q71.51-32.86 70.53-32.56 69.55-32.25 69.1-32.02 68.65-31.79 67.99-30.8 67.33-29.81 66.35-28.04 65.38-26.27 64.43-24.38 63.47-22.49 62.53-20.54 61.59-18.6 60.64-16.72L60.64-16.72ZM58.23-17.46L59.62-14.72 59.37-14.36 59.37-5.64Q59.37-2.88 60.69-2.34L60.69-2.34Q61.08-2.2 61.52-2.1L61.52-2.1Q62.86-1.76 63.33-1.44L63.33-1.44 63.33 0 49.34 0 49.34-1.44Q49.88-1.78 50.74-1.98 51.61-2.17 52-2.33 52.39-2.49 52.66-2.88L52.66-2.88Q53.27-3.69 53.27-5.76L53.27-5.76 53.27-14.45 44.8-30.69Q44.09-32.06 42.06-32.74L42.06-32.74Q41.57-32.91 41.11-33.15L41.11-33.15 41.11-34.69 54.76-34.69 54.76-33.15Q54.17-32.91 53.57-32.79 52.98-32.67 52.51-32.52L52.51-32.52Q51.44-32.15 51.44-31.3L51.44-31.3Q51.44-30.66 52.19-29.19 52.95-27.71 53.7-26.26 54.44-24.8 55.55-22.66 56.66-20.51 58.23-17.46L58.23-17.46ZM82.25-34.69L88.35-34.69 88.35-5.59Q88.35-3.66 88.76-3.11 89.18-2.56 89.53-2.4 89.89-2.25 90.33-2.15L90.33-2.15Q91.57-1.83 92.21-1.44L92.21-1.44 92.21 0 78.49 0 78.49-1.44Q79.02-1.78 79.89-2.01 80.76-2.25 81.11-2.39 81.46-2.54 81.73-2.88L81.73-2.88Q82.25-3.61 82.25-5.59L82.25-5.59 82.25-34.69ZM90.38-34.69L95.6-34.69Q96.6-34.69 98.95-35.06L98.95-35.06 98.95-23.51 97.29-23.51Q96.94-24.44 96.69-25.48 96.43-26.51 96.11-27.53 95.8-28.54 95.38-29.48 94.97-30.42 94.31-31.13L94.31-31.13Q92.84-32.69 90.38-32.69L90.38-32.69 90.38-34.69ZM71.67-35.01L71.72-35.06Q72.9-34.69 73.51-34.69L73.51-34.69 80.22-34.69 80.22-32.69Q76.7-32.69 75.24-29.44L75.24-29.44Q74.53-27.91 74.12-26.16 73.7-24.41 73.38-23.51L73.38-23.51 71.67-23.51 71.67-35.01ZM123.82-5.76L123.82-29.3Q123.82-31.1 123.45-31.63 123.09-32.15 122.77-32.3 122.45-32.45 122.09-32.57L122.09-32.57Q120.89-32.91 120.4-33.25L120.4-33.25 120.4-34.69 133.22-34.69 133.22-33.25Q132.56-32.96 131.96-32.79 131.36-32.62 130.9-32.35L130.9-32.35Q129.9-31.76 129.9-30.2L129.9-30.2 129.9-4.49Q129.9-2.93 130.9-2.34L130.9-2.34Q131.36-2.08 131.96-1.9 132.56-1.73 133.22-1.44L133.22-1.44 133.22 0 120.4 0 120.4-1.44Q123.23-1.83 123.67-4.05L123.67-4.05Q123.82-4.79 123.82-5.76L123.82-5.76ZM111.17-29.05L111.17-5.54Q111.17-2.88 112.2-2.34L112.2-2.34Q112.54-2.2 113.33-1.97 114.13-1.73 114.59-1.44L114.59-1.44 114.59 0 101.8 0 101.8-1.44Q102.46-1.73 103.04-1.9 103.63-2.08 104.09-2.34L104.09-2.34Q105.1-2.93 105.1-4.49L105.1-4.49 105.1-30.2Q105.1-31.76 104.09-32.35L104.09-32.35Q103.63-32.62 103.04-32.79 102.46-32.96 101.8-33.25L101.8-33.25 101.8-34.69 114.59-34.69 114.59-33.25Q114.03-32.89 113.25-32.67 112.47-32.45 112.16-32.29 111.86-32.13 111.64-31.76L111.64-31.76Q111.17-30.98 111.17-29.05L111.17-29.05ZM121.79-19.19L121.79-16.94 113.2-16.94 113.2-19.19 121.79-19.19ZM137.49-34.69L150.6-34.69 150.6-33.25Q149.89-32.96 149.26-32.79 148.62-32.62 148.16-32.35L148.16-32.35Q147.11-31.76 147.11-30.2L147.11-30.2 147.11-4.49Q147.11-2.93 148.16-2.34L148.16-2.34Q148.65-2.08 149.28-1.9 149.92-1.73 150.65-1.44L150.65-1.44 150.65 0 137.49 0 137.49-1.44Q138.2-1.73 138.83-1.9 139.47-2.08 139.96-2.34L139.96-2.34Q141.03-2.93 141.03-4.49L141.03-4.49 141.03-30.2Q141.03-31.76 139.96-32.35L139.96-32.35Q139.47-32.62 138.83-32.79 138.2-32.96 137.49-33.25L137.49-33.25 137.49-34.69ZM178.48-33.01L178.48-33.01Q179.36-33.01 179.92-34.3L179.92-34.3 182.07-34.3 182.07-22.09 180.41-22.09Q179.43-23.02 178.67-25.13 177.92-27.25 177.43-28.47 176.94-29.69 176.21-30.71L176.21-30.71Q174.6-32.98 171.74-33.37L171.74-33.37 171.74-35.38Q174.82-35.08 177.65-33.33L177.65-33.33Q178.16-33.01 178.48-33.01ZM171.74 0.73L171.74-1.59Q177.11-1.59 179.38-6.96L179.38-6.96Q180.16-8.81 180.51-11.4L180.51-11.4 182.82-10.84Q182.07-5.15 179.33-2.33 176.6 0.49 171.74 0.73L171.74 0.73ZM169.71-1.73L169.71 0.73Q163.1 0.39 159.07-4.47L159.07-4.47Q155.02-9.38 155.02-17.36L155.02-17.36Q155.02-25.12 159.22-30.22L159.22-30.22Q163.34-35.25 169.71-35.45L169.71-35.45 169.71-33.4Q164.32-32.89 162.54-24.73L162.54-24.73Q161.88-21.7 161.88-17.47 161.88-13.23 162.54-10.42 163.2-7.62 164.29-5.79L164.29-5.79Q166.3-2.39 169.71-1.73L169.71-1.73ZM209.6 0L200.1 0 200.1-1.44Q200.69-1.81 201.44-2 202.18-2.2 202.5-2.37 202.81-2.54 203.03-2.91L203.03-2.91Q203.52-3.66 203.52-5.69L203.52-5.69 203.52-28.96Q203.52-31.01 203.17-31.57 202.81-32.13 202.51-32.29 202.2-32.45 201.81-32.57L201.81-32.57Q200.59-32.91 200.1-33.25L200.1-33.25 200.1-34.69 209.6-34.69 209.6 0ZM211.63 0L211.63-2 212.09-1.98Q217.59-1.98 219.88-3.13L219.88-3.13Q222.3-4.35 223.3-7.96L223.3-7.96Q223.52-8.72 223.68-9.34 223.84-9.96 224.03-10.47L224.03-10.47Q224.4-11.55 225.06-12.21L225.06-12.21 226.64-12.21 226.64 0 211.63 0ZM211.63-34.69L220.66-34.69Q222.17-34.69 225.54-35.06L225.54-35.06 225.54-23.1 223.84-23.1Q222.98-24.19 222.52-25.56 222.05-26.93 221.56-28.22 221.08-29.52 220.59-30.3 220.1-31.08 219.37-31.62L219.37-31.62Q217.9-32.69 215.4-32.69 212.9-32.69 211.63-32.32L211.63-32.32 211.63-34.69ZM211.63-16.06L211.63-20.65 218.76-20.65 218.76-16.06 211.63-16.06ZM252.01-8.23L250.71-12.5 257.28-34.69 268.24-34.69 268.24-33.25Q267.66-32.96 267.07-32.8 266.48-32.64 266.02-32.42L266.02-32.42Q264.99-31.88 264.99-30.59L264.99-30.59 264.99-4.49Q264.99-2.98 266.04-2.39L266.04-2.39Q266.51-2.12 267.12-1.93 267.73-1.73 268.41-1.44L268.41-1.44 268.41 0 255.64 0 255.64-1.44Q256.23-1.73 256.8-1.93 257.38-2.12 257.84-2.39L257.84-2.39Q258.89-3 258.89-4.49L258.89-4.49 258.89-31.2 258.79-31.2 252.01-8.23ZM234.11-29.88L236.89-28.83 236.89-5.2Q236.89-3.3 238.02-2.51L238.02-2.51Q238.53-2.17 239.18-1.97 239.82-1.76 240.48-1.44L240.48-1.44 240.48 0 230.69 0 230.69-1.44Q231.28-1.73 231.89-1.92 232.5-2.1 232.99-2.44L232.99-2.44Q234.11-3.2 234.11-5.15L234.11-5.15 234.11-29.88ZM246.68 0L236.99-30.69Q231.84-32.67 230.69-33.25L230.69-33.25 230.69-34.69 241.7-34.69 251.05-5.03 249.56 0 246.68 0ZM292.9-25.61L292.9-25.61Q292.9-32.86 286.16-32.86L286.16-32.86Q285.08-32.86 284.25-32.71L284.25-32.71 284.25-34.69 286.38-34.69Q295.95-34.69 298.78-29.71L298.78-29.71Q299.78-27.98 299.78-25.79 299.78-23.61 298.99-21.92 298.2-20.24 296.61-18.99L296.61-18.99Q293.19-16.31 287.09-16.31L287.09-16.31 284.25-16.31 284.25-18.14Q288.7-18.14 290.72-19.73L290.72-19.73Q292.9-21.48 292.9-25.61ZM282.23-34.69L282.23-5.81Q282.23-4.13 282.36-3.53 282.5-2.93 282.91-2.62 283.33-2.32 283.91-2.16 284.5-2 285.18-1.87 285.87-1.73 286.5-1.44L286.5-1.44 286.5 0 272.71 0 272.71-1.44Q273.12-1.73 273.65-1.86 274.17-1.98 274.66-2.15L274.66-2.15Q275.83-2.51 275.98-3.53 276.12-4.54 276.12-5.86L276.12-5.86 276.12-28.86Q276.12-31.57 275.49-32.08L275.49-32.08Q274.98-32.5 274.06-32.73 273.15-32.96 272.71-33.25L272.71-33.25 272.71-34.69 282.23-34.69ZM316.92-1.29L316.92 0.73Q310.67 0.29 306.59-4.93L306.59-4.93Q302.64-10.01 302.64-17.36L302.64-17.36Q302.64-24.66 306.59-29.74L306.59-29.74Q310.67-34.96 316.92-35.4L316.92-35.4 316.92-33.4Q313.33-33.03 311.52-29.59L311.52-29.59Q309.5-25.63 309.5-17.36L309.5-17.36Q309.5-5.2 313.87-2.34L313.87-2.34Q315.23-1.46 316.92-1.29L316.92-1.29ZM318.94 0.71L318.94-1.29Q324.41-1.86 325.83-10.01L325.83-10.01Q326.37-13.01 326.37-17.36L326.37-17.36Q326.37-29.47 322-32.32L322-32.32Q320.63-33.2 318.94-33.4L318.94-33.4 318.94-35.42Q325.24-34.99 329.3-29.79L329.3-29.79Q333.28-24.68 333.28-17.36 333.28-10.03 329.3-4.93L329.3-4.93Q325.24 0.27 318.94 0.71L318.94 0.71ZM349.17-34.69L350.07-34.69Q364.4-34.69 364.4-26.05L364.4-26.05Q364.4-22.53 361.81-20.19L361.81-20.19Q359.1-17.75 354.44-17.55L354.44-17.55 354.44-17.46Q356.98-16.85 358.37-14.89L358.37-14.89Q359.1-13.87 359.98-11.63 360.86-9.4 361.37-8.09 361.89-6.79 362.4-5.74L362.4-5.74Q363.55-3.37 364.43-3.37L364.43-3.37Q364.79-3.37 365.06-3.7 365.33-4.03 365.6-4.44L365.6-4.44Q366.35-5.49 366.96-5.49L366.96-5.49Q367.04-5.49 367.31-5.36 367.58-5.22 367.58-4.83 367.58-4.44 367.4-4L367.4-4Q366.01-1.78 365.3-1.1L365.3-1.1Q363.79 0.39 361.95 0.39 360.1 0.39 359.02-0.2 357.93-0.78 357.2-1.77 356.47-2.76 356.01-4.05 355.56-5.35 355.21-6.76 354.86-8.18 354.51-9.62 354.17-11.06 353.66-12.35L353.66-12.35Q352.49-15.26 350.41-16.28L350.41-16.28Q349.9-16.55 349.17-16.85L349.17-16.85 349.17-18.85Q356.08-18.85 357.54-22.73L357.54-22.73Q358.03-24.07 358.03-25.9L358.03-25.9Q358.03-29.2 356.1-31.03 354.17-32.86 350.19-32.86L350.19-32.86Q349.48-32.86 349.17-32.79L349.17-32.79 349.17-34.69ZM347.14-34.69L347.14-5.81Q347.14-4.2 347.24-3.54 347.34-2.88 347.69-2.59 348.04-2.29 348.53-2.14 349.02-1.98 349.56-1.86 350.09-1.73 350.56-1.44L350.56-1.44 350.56 0 337.62 0 337.62-1.44Q337.99-1.73 338.5-1.86 339.01-1.98 339.52-2.15L339.52-2.15Q340.74-2.51 340.89-3.53 341.04-4.54 341.04-5.86L341.04-5.86 341.04-28.86Q341.04-31.57 340.4-32.08L340.4-32.08Q339.89-32.5 338.97-32.73 338.06-32.96 337.62-33.25L337.62-33.25 337.62-34.69 347.14-34.69ZM370.43-34.69L383.54-34.69 383.54-33.25Q382.83-32.96 382.2-32.79 381.56-32.62 381.1-32.35L381.1-32.35Q380.05-31.76 380.05-30.2L380.05-30.2 380.05-4.49Q380.05-2.93 381.1-2.34L381.1-2.34Q381.59-2.08 382.22-1.9 382.86-1.73 383.59-1.44L383.59-1.44 383.59 0 370.43 0 370.43-1.44Q371.14-1.73 371.77-1.9 372.41-2.08 372.89-2.34L372.89-2.34Q373.97-2.93 373.97-4.49L373.97-4.49 373.97-30.2Q373.97-31.76 372.89-32.35L372.89-32.35Q372.41-32.62 371.77-32.79 371.14-32.96 370.43-33.25L370.43-33.25 370.43-34.69ZM405.22 0.68L405.22-1.27Q410.34-1.49 411.93-5.27L411.93-5.27Q412.47-6.52 412.47-8.15L412.47-8.15 412.47-29.91Q412.47-31.93 410.07-32.74L410.07-32.74Q409.42-32.96 408.76-33.25L408.76-33.25 408.76-34.69 419.01-34.69 419.01-33.25Q418.35-32.96 417.68-32.74 417.01-32.52 416.47-32.18L416.47-32.18Q415.25-31.45 415.25-29.91L415.25-29.91 415.25-8.91Q415.25-0.02 405.22 0.68L405.22 0.68ZM403.19-1.32L403.19 0.76Q394.06 0.76 391.57-4.93L391.57-4.93Q390.74-6.81 390.74-9.25L390.74-9.25 390.74-30.2Q390.74-31.76 389.79-32.35L389.79-32.35Q389.35-32.62 388.74-32.79 388.13-32.96 387.42-33.25L387.42-33.25 387.42-34.69 400.19-34.69 400.19-33.25Q399.45-32.96 398.84-32.79 398.23-32.62 397.77-32.35L397.77-32.35Q396.82-31.79 396.82-30.2L396.82-30.2 396.82-8.11Q396.82-5.25 398.55-3.42L398.55-3.42Q400.21-1.66 403.19-1.32L403.19-1.32ZM443.52-8.23L442.23-12.5 448.79-34.69 459.76-34.69 459.76-33.25Q459.17-32.96 458.58-32.8 458-32.64 457.53-32.42L457.53-32.42Q456.51-31.88 456.51-30.59L456.51-30.59 456.51-4.49Q456.51-2.98 457.56-2.39L457.56-2.39Q458.02-2.12 458.63-1.93 459.24-1.73 459.93-1.44L459.93-1.44 459.93 0 447.16 0 447.16-1.44Q447.74-1.73 448.32-1.93 448.89-2.12 449.35-2.39L449.35-2.39Q450.4-3 450.4-4.49L450.4-4.49 450.4-31.2 450.31-31.2 443.52-8.23ZM425.62-29.88L428.41-28.83 428.41-5.2Q428.41-3.3 429.53-2.51L429.53-2.51Q430.04-2.17 430.69-1.97 431.34-1.76 432-1.44L432-1.44 432 0 422.21 0 422.21-1.44Q422.79-1.73 423.4-1.92 424.01-2.1 424.5-2.44L424.5-2.44Q425.62-3.2 425.62-5.15L425.62-5.15 425.62-29.88ZM438.2 0L428.51-30.69Q423.35-32.67 422.21-33.25L422.21-33.25 422.21-34.69 433.22-34.69 442.57-5.03 441.08 0 438.2 0Z" opacity="1" transform="matrix(1,0,0,1,0,0)" fill="#ffffff" class="wordmark-text-0" data-fill-palette-color="primary" id="text-0"></path></svg></g></svg></g><g transform="matrix(1,0,0,1,0,40.73773985178616)"><svg viewBox="0 0 395.52 12.948259602649005" height="12.948259602649005" width="395.52"><g transform="matrix(1,0,0,1,0,0)"><svg width="395.52" viewBox="-0.7599999904632568 -35.45000076293945 1105.8599853515625 36.209999084472656" height="12.948259602649005" data-palette-color="#ffffff"><path d="M18.77-16.72L17.31-19.34Q22.05-28.56 22.39-29.44L22.39-29.44Q22.8-30.54 22.8-31.09 22.8-31.64 22.49-31.97 22.17-32.3 21.69-32.48 21.22-32.67 20.63-32.8 20.04-32.93 19.53-33.15L19.53-33.15 19.53-34.69 30.03-34.69 30.03-33.15Q29.64-32.86 28.66-32.56 27.69-32.25 27.23-32.02 26.78-31.79 26.12-30.8 25.46-29.81 24.49-28.04 23.51-26.27 22.56-24.38 21.61-22.49 20.67-20.54 19.73-18.6 18.77-16.72L18.77-16.72ZM16.36-17.46L17.75-14.72 17.5-14.36 17.5-5.64Q17.5-2.88 18.82-2.34L18.82-2.34Q19.21-2.2 19.65-2.1L19.65-2.1Q21-1.76 21.46-1.44L21.46-1.44 21.46 0 7.47 0 7.47-1.44Q8.01-1.78 8.87-1.98 9.74-2.17 10.13-2.33 10.52-2.49 10.79-2.88L10.79-2.88Q11.4-3.69 11.4-5.76L11.4-5.76 11.4-14.45 2.93-30.69Q2.22-32.06 0.2-32.74L0.2-32.74Q-0.29-32.91-0.76-33.15L-0.76-33.15-0.76-34.69 12.89-34.69 12.89-33.15Q12.3-32.91 11.71-32.79 11.11-32.67 10.64-32.52L10.64-32.52Q9.57-32.15 9.57-31.3L9.57-31.3Q9.57-30.66 10.33-29.19 11.08-27.71 11.83-26.26 12.57-24.8 13.68-22.66 14.79-20.51 16.36-17.46L16.36-17.46ZM45.36-1.29L45.36 0.73Q39.11 0.29 35.03-4.93L35.03-4.93Q31.08-10.01 31.08-17.36L31.08-17.36Q31.08-24.66 35.03-29.74L35.03-29.74Q39.11-34.96 45.36-35.4L45.36-35.4 45.36-33.4Q41.77-33.03 39.96-29.59L39.96-29.59Q37.94-25.63 37.94-17.36L37.94-17.36Q37.94-5.2 42.31-2.34L42.31-2.34Q43.67-1.46 45.36-1.29L45.36-1.29ZM47.39 0.71L47.39-1.29Q52.85-1.86 54.27-10.01L54.27-10.01Q54.81-13.01 54.81-17.36L54.81-17.36Q54.81-29.47 50.44-32.32L50.44-32.32Q49.07-33.2 47.39-33.4L47.39-33.4 47.39-35.42Q53.68-34.99 57.74-29.79L57.74-29.79Q61.72-24.68 61.72-17.36 61.72-10.03 57.74-4.93L57.74-4.93Q53.68 0.27 47.39 0.71L47.39 0.71ZM83.22 0.68L83.22-1.27Q88.35-1.49 89.94-5.27L89.94-5.27Q90.47-6.52 90.47-8.15L90.47-8.15 90.47-29.91Q90.47-31.93 88.08-32.74L88.08-32.74Q87.42-32.96 86.76-33.25L86.76-33.25 86.76-34.69 97.02-34.69 97.02-33.25Q96.36-32.96 95.69-32.74 95.01-32.52 94.48-32.18L94.48-32.18Q93.26-31.45 93.26-29.91L93.26-29.91 93.26-8.91Q93.26-0.02 83.22 0.68L83.22 0.68ZM81.2-1.32L81.2 0.76Q72.07 0.76 69.58-4.93L69.58-4.93Q68.75-6.81 68.75-9.25L68.75-9.25 68.75-30.2Q68.75-31.76 67.79-32.35L67.79-32.35Q67.35-32.62 66.74-32.79 66.13-32.96 65.42-33.25L65.42-33.25 65.42-34.69 78.19-34.69 78.19-33.25Q77.46-32.96 76.85-32.79 76.24-32.62 75.78-32.35L75.78-32.35Q74.82-31.79 74.82-30.2L74.82-30.2 74.82-8.11Q74.82-5.25 76.56-3.42L76.56-3.42Q78.22-1.66 81.2-1.32L81.2-1.32ZM111.91-34.69L112.81-34.69Q127.14-34.69 127.14-26.05L127.14-26.05Q127.14-22.53 124.55-20.19L124.55-20.19Q121.84-17.75 117.18-17.55L117.18-17.55 117.18-17.46Q119.72-16.85 121.11-14.89L121.11-14.89Q121.84-13.87 122.72-11.63 123.6-9.4 124.11-8.09 124.63-6.79 125.14-5.74L125.14-5.74Q126.29-3.37 127.17-3.37L127.17-3.37Q127.53-3.37 127.8-3.7 128.07-4.03 128.34-4.44L128.34-4.44Q129.09-5.49 129.7-5.49L129.7-5.49Q129.78-5.49 130.05-5.36 130.31-5.22 130.31-4.83 130.31-4.44 130.14-4L130.14-4Q128.75-1.78 128.04-1.1L128.04-1.1Q126.53 0.39 124.69 0.39 122.84 0.39 121.76-0.2 120.67-0.78 119.94-1.77 119.21-2.76 118.75-4.05 118.3-5.35 117.95-6.76 117.6-8.18 117.25-9.62 116.91-11.06 116.4-12.35L116.4-12.35Q115.23-15.26 113.15-16.28L113.15-16.28Q112.64-16.55 111.91-16.85L111.91-16.85 111.91-18.85Q118.82-18.85 120.28-22.73L120.28-22.73Q120.77-24.07 120.77-25.9L120.77-25.9Q120.77-29.2 118.84-31.03 116.91-32.86 112.93-32.86L112.93-32.86Q112.22-32.86 111.91-32.79L111.91-32.79 111.91-34.69ZM109.88-34.69L109.88-5.81Q109.88-4.2 109.98-3.54 110.08-2.88 110.43-2.59 110.78-2.29 111.27-2.14 111.76-1.98 112.3-1.86 112.83-1.73 113.3-1.44L113.3-1.44 113.3 0 100.36 0 100.36-1.44Q100.72-1.73 101.24-1.86 101.75-1.98 102.26-2.15L102.26-2.15Q103.48-2.51 103.63-3.53 103.78-4.54 103.78-5.86L103.78-5.86 103.78-28.86Q103.78-31.57 103.14-32.08L103.14-32.08Q102.63-32.5 101.71-32.73 100.8-32.96 100.36-33.25L100.36-33.25 100.36-34.69 109.88-34.69ZM160.17-1.29L160.17 0.73Q153.92 0.29 149.84-4.93L149.84-4.93Q145.89-10.01 145.89-17.36L145.89-17.36Q145.89-24.66 149.84-29.74L149.84-29.74Q153.92-34.96 160.17-35.4L160.17-35.4 160.17-33.4Q156.58-33.03 154.77-29.59L154.77-29.59Q152.75-25.63 152.75-17.36L152.75-17.36Q152.75-5.2 157.12-2.34L157.12-2.34Q158.48-1.46 160.17-1.29L160.17-1.29ZM162.19 0.71L162.19-1.29Q167.66-1.86 169.08-10.01L169.08-10.01Q169.62-13.01 169.62-17.36L169.62-17.36Q169.62-29.47 165.25-32.32L165.25-32.32Q163.88-33.2 162.19-33.4L162.19-33.4 162.19-35.42Q168.49-34.99 172.55-29.79L172.55-29.79Q176.53-24.68 176.53-17.36 176.53-10.03 172.55-4.93L172.55-4.93Q168.49 0.27 162.19 0.71L162.19 0.71ZM208.36-8.59L205.55-12.99 205.55-30.2Q205.55-31.52 204.33-32.23L204.33-32.23Q203.79-32.52 203.12-32.76 202.45-33.01 201.79-33.3L201.79-33.3 201.79-34.74 212-34.74 212-33.3Q211.39-33.01 210.74-32.76 210.09-32.52 209.58-32.23L209.58-32.23Q208.36-31.52 208.36-30.2L208.36-30.2 208.36-8.59ZM183.82-29.59L186.63-25.93 186.63-4.54Q186.63-3.2 187.9-2.54L187.9-2.54Q188.46-2.22 189.21-1.98 189.95-1.73 190.73-1.44L190.73-1.44 190.73 0 179.99 0 179.99-1.44Q180.67-1.73 181.36-1.98 182.04-2.22 182.58-2.54L182.58-2.54Q183.82-3.22 183.82-4.54L183.82-4.54 183.82-29.59ZM204.77 0.2L186.73-28.96Q184.12-32.03 181.5-32.81L181.5-32.81Q180.82-33.03 180.16-33.25L180.16-33.25 180.16-34.69 189.68-34.69 208.36-5.15 208.36 0.2 204.77 0.2ZM225.1 0L215.61 0 215.61-1.44Q216.19-1.81 216.94-2 217.68-2.2 218-2.37 218.32-2.54 218.54-2.91L218.54-2.91Q219.03-3.66 219.03-5.69L219.03-5.69 219.03-28.96Q219.03-31.01 218.67-31.57 218.32-32.13 218.01-32.29 217.71-32.45 217.32-32.57L217.32-32.57Q216.1-32.91 215.61-33.25L215.61-33.25 215.61-34.69 225.1-34.69 225.1 0ZM227.13 0L227.13-2 227.59-1.98Q233.09-1.98 235.38-3.13L235.38-3.13Q237.8-4.35 238.8-7.96L238.8-7.96Q239.02-8.72 239.18-9.34 239.34-9.96 239.53-10.47L239.53-10.47Q239.9-11.55 240.56-12.21L240.56-12.21 242.15-12.21 242.15 0 227.13 0ZM227.13-34.69L236.16-34.69Q237.68-34.69 241.05-35.06L241.05-35.06 241.05-23.1 239.34-23.1Q238.48-24.19 238.02-25.56 237.56-26.93 237.07-28.22 236.58-29.52 236.09-30.3 235.6-31.08 234.87-31.62L234.87-31.62Q233.41-32.69 230.9-32.69 228.4-32.69 227.13-32.32L227.13-32.32 227.13-34.69ZM227.13-16.06L227.13-20.65 234.26-20.65 234.26-16.06 227.13-16.06ZM271.49-33.37L271.49-35.38Q273.29-35.21 274.57-34.55 275.86-33.89 276.33-33.62 276.81-33.35 277.14-33.35 277.47-33.35 277.69-33.5 277.91-33.64 278.08-33.84 278.25-34.03 278.37-34.27 278.49-34.5 278.62-34.69L278.62-34.69 280.86-34.69 280.86-23.24 279.1-23.24Q278.57-23.8 277.88-25.7 277.2-27.59 276.72-28.71 276.25-29.83 275.54-30.81L275.54-30.81Q273.98-32.98 271.49-33.37L271.49-33.37ZM266.54-0.13Q265.09-0.78 264.5-1.06 263.92-1.34 263.3-1.34 262.67-1.34 261.92 0L261.92 0 259.65 0 259.65-12.06 261.33-12.06Q261.87-11.5 262.29-10.52 262.72-9.55 263.2-8.41 263.67-7.28 264.24-6.08 264.8-4.88 265.6-3.86L265.6-3.86Q267.41-1.59 270.19-1.29L270.19-1.29 270.19 0.71Q268 0.51 266.54-0.13ZM272.22 0.73L272.22-1.32Q274.86-1.64 276.3-3.47L276.3-3.47Q277.57-5.1 277.57-7.21 277.57-9.33 276.81-10.61 276.05-11.89 274.82-12.88 273.59-13.87 272-14.67 270.41-15.48 268.76-16.27 267.12-17.07 265.54-17.93 263.97-18.8 262.75-19.92L262.75-19.92Q259.99-22.46 259.99-26.1L259.99-26.1Q259.99-29.79 262.5-32.4L262.5-32.4Q265.19-35.13 269.46-35.42L269.46-35.42 269.46-33.4Q266.43-33.01 265.38-30.3L265.38-30.3Q265.04-29.42 265.04-28.1 265.04-26.78 265.82-25.63 266.6-24.49 267.87-23.58 269.14-22.68 270.77-21.92 272.39-21.17 274.09-20.39 275.78-19.6 277.41-18.7 279.03-17.8 280.3-16.6L280.3-16.6Q283.13-13.89 283.13-10.06L283.13-10.06Q283.13-5.91 280.13-2.83L280.13-2.83Q276.98 0.44 272.22 0.73L272.22 0.73ZM296.85-34.69L302.95-34.69 302.95-5.59Q302.95-3.66 303.37-3.11 303.78-2.56 304.14-2.4 304.49-2.25 304.93-2.15L304.93-2.15Q306.18-1.83 306.81-1.44L306.81-1.44 306.81 0 293.09 0 293.09-1.44Q293.63-1.78 294.49-2.01 295.36-2.25 295.71-2.39 296.07-2.54 296.34-2.88L296.34-2.88Q296.85-3.61 296.85-5.59L296.85-5.59 296.85-34.69ZM304.98-34.69L310.2-34.69Q311.21-34.69 313.55-35.06L313.55-35.06 313.55-23.51 311.89-23.51Q311.55-24.44 311.29-25.48 311.03-26.51 310.72-27.53 310.4-28.54 309.98-29.48 309.57-30.42 308.91-31.13L308.91-31.13Q307.45-32.69 304.98-32.69L304.98-32.69 304.98-34.69ZM286.28-35.01L286.33-35.06Q287.5-34.69 288.11-34.69L288.11-34.69 294.82-34.69 294.82-32.69Q291.31-32.69 289.84-29.44L289.84-29.44Q289.14-27.91 288.72-26.16 288.31-24.41 287.99-23.51L287.99-23.51 286.28-23.51 286.28-35.01ZM330.81-1.29L330.81 0.73Q324.56 0.29 320.48-4.93L320.48-4.93Q316.53-10.01 316.53-17.36L316.53-17.36Q316.53-24.66 320.48-29.74L320.48-29.74Q324.56-34.96 330.81-35.4L330.81-35.4 330.81-33.4Q327.22-33.03 325.41-29.59L325.41-29.59Q323.39-25.63 323.39-17.36L323.39-17.36Q323.39-5.2 327.76-2.34L327.76-2.34Q329.12-1.46 330.81-1.29L330.81-1.29ZM332.83 0.71L332.83-1.29Q338.3-1.86 339.72-10.01L339.72-10.01Q340.26-13.01 340.26-17.36L340.26-17.36Q340.26-29.47 335.89-32.32L335.89-32.32Q334.52-33.2 332.83-33.4L332.83-33.4 332.83-35.42Q339.13-34.99 343.19-29.79L343.19-29.79Q347.16-24.68 347.16-17.36 347.16-10.03 343.19-4.93L343.19-4.93Q339.13 0.27 332.83 0.71L332.83 0.71ZM371.7-25.61L371.7-25.61Q371.7-32.86 364.96-32.86L364.96-32.86Q363.89-32.86 363.06-32.71L363.06-32.71 363.06-34.69 365.18-34.69Q374.75-34.69 377.58-29.71L377.58-29.71Q378.58-27.98 378.58-25.79 378.58-23.61 377.79-21.92 377-20.24 375.41-18.99L375.41-18.99Q371.99-16.31 365.89-16.31L365.89-16.31 363.06-16.31 363.06-18.14Q367.5-18.14 369.53-19.73L369.53-19.73Q371.7-21.48 371.7-25.61ZM361.03-34.69L361.03-5.81Q361.03-4.13 361.16-3.53 361.3-2.93 361.71-2.62 362.13-2.32 362.71-2.16 363.3-2 363.98-1.87 364.67-1.73 365.3-1.44L365.3-1.44 365.3 0 351.51 0 351.51-1.44Q351.92-1.73 352.45-1.86 352.97-1.98 353.46-2.15L353.46-2.15Q354.63-2.51 354.78-3.53 354.93-4.54 354.93-5.86L354.93-5.86 354.93-28.86Q354.93-31.57 354.29-32.08L354.29-32.08Q353.78-32.5 352.86-32.73 351.95-32.96 351.51-33.25L351.51-33.25 351.51-34.69 361.03-34.69ZM406.68-33.37L406.68-35.38Q408.49-35.21 409.77-34.55 411.05-33.89 411.53-33.62 412-33.35 412.33-33.35 412.66-33.35 412.88-33.5 413.1-33.64 413.27-33.84 413.44-34.03 413.56-34.27 413.69-34.5 413.81-34.69L413.81-34.69 416.05-34.69 416.05-23.24 414.3-23.24Q413.76-23.8 413.08-25.7 412.39-27.59 411.92-28.71 411.44-29.83 410.73-30.81L410.73-30.81Q409.17-32.98 406.68-33.37L406.68-33.37ZM401.74-0.13Q400.28-0.78 399.7-1.06 399.11-1.34 398.49-1.34 397.87-1.34 397.11 0L397.11 0 394.84 0 394.84-12.06 396.52-12.06Q397.06-11.5 397.49-10.52 397.91-9.55 398.39-8.41 398.87-7.28 399.43-6.08 399.99-4.88 400.8-3.86L400.8-3.86Q402.6-1.59 405.38-1.29L405.38-1.29 405.38 0.71Q403.19 0.51 401.74-0.13ZM407.41 0.73L407.41-1.32Q410.05-1.64 411.49-3.47L411.49-3.47Q412.76-5.1 412.76-7.21 412.76-9.33 412-10.61 411.24-11.89 410.01-12.88 408.78-13.87 407.19-14.67 405.6-15.48 403.96-16.27 402.31-17.07 400.73-17.93 399.16-18.8 397.94-19.92L397.94-19.92Q395.18-22.46 395.18-26.1L395.18-26.1Q395.18-29.79 397.69-32.4L397.69-32.4Q400.38-35.13 404.65-35.42L404.65-35.42 404.65-33.4Q401.63-33.01 400.58-30.3L400.58-30.3Q400.23-29.42 400.23-28.1 400.23-26.78 401.01-25.63 401.8-24.49 403.07-23.58 404.34-22.68 405.96-21.92 407.58-21.17 409.28-20.39 410.98-19.6 412.6-18.7 414.22-17.8 415.49-16.6L415.49-16.6Q418.32-13.89 418.32-10.06L418.32-10.06Q418.32-5.91 415.32-2.83L415.32-2.83Q412.17 0.44 407.41 0.73L407.41 0.73ZM444.64-5.76L444.64-29.3Q444.64-31.1 444.27-31.63 443.91-32.15 443.59-32.3 443.27-32.45 442.91-32.57L442.91-32.57Q441.71-32.91 441.22-33.25L441.22-33.25 441.22-34.69 454.04-34.69 454.04-33.25Q453.38-32.96 452.78-32.79 452.18-32.62 451.72-32.35L451.72-32.35Q450.72-31.76 450.72-30.2L450.72-30.2 450.72-4.49Q450.72-2.93 451.72-2.34L451.72-2.34Q452.18-2.08 452.78-1.9 453.38-1.73 454.04-1.44L454.04-1.44 454.04 0 441.22 0 441.22-1.44Q444.05-1.83 444.49-4.05L444.49-4.05Q444.64-4.79 444.64-5.76L444.64-5.76ZM431.99-29.05L431.99-5.54Q431.99-2.88 433.02-2.34L433.02-2.34Q433.36-2.2 434.15-1.97 434.95-1.73 435.41-1.44L435.41-1.44 435.41 0 422.62 0 422.62-1.44Q423.28-1.73 423.86-1.9 424.45-2.08 424.91-2.34L424.91-2.34Q425.91-2.93 425.91-4.49L425.91-4.49 425.91-30.2Q425.91-31.76 424.91-32.35L424.91-32.35Q424.45-32.62 423.86-32.79 423.28-32.96 422.62-33.25L422.62-33.25 422.62-34.69 435.41-34.69 435.41-33.25Q434.85-32.89 434.07-32.67 433.29-32.45 432.98-32.29 432.68-32.13 432.46-31.76L432.46-31.76Q431.99-30.98 431.99-29.05L431.99-29.05ZM442.61-19.19L442.61-16.94 434.02-16.94 434.02-19.19 442.61-19.19ZM472.42-1.29L472.42 0.73Q466.17 0.29 462.09-4.93L462.09-4.93Q458.14-10.01 458.14-17.36L458.14-17.36Q458.14-24.66 462.09-29.74L462.09-29.74Q466.17-34.96 472.42-35.4L472.42-35.4 472.42-33.4Q468.83-33.03 467.03-29.59L467.03-29.59Q465-25.63 465-17.36L465-17.36Q465-5.2 469.37-2.34L469.37-2.34Q470.74-1.46 472.42-1.29L472.42-1.29ZM474.45 0.71L474.45-1.29Q479.92-1.86 481.33-10.01L481.33-10.01Q481.87-13.01 481.87-17.36L481.87-17.36Q481.87-29.47 477.5-32.32L477.5-32.32Q476.13-33.2 474.45-33.4L474.45-33.4 474.45-35.42Q480.75-34.99 484.8-29.79L484.8-29.79Q488.78-24.68 488.78-17.36 488.78-10.03 484.8-4.93L484.8-4.93Q480.75 0.27 474.45 0.71L474.45 0.71ZM513.31-25.61L513.31-25.61Q513.31-32.86 506.57-32.86L506.57-32.86Q505.5-32.86 504.67-32.71L504.67-32.71 504.67-34.69 506.79-34.69Q516.36-34.69 519.2-29.71L519.2-29.71Q520.2-27.98 520.2-25.79 520.2-23.61 519.4-21.92 518.61-20.24 517.02-18.99L517.02-18.99Q513.6-16.31 507.5-16.31L507.5-16.31 504.67-16.31 504.67-18.14Q509.11-18.14 511.14-19.73L511.14-19.73Q513.31-21.48 513.31-25.61ZM502.64-34.69L502.64-5.81Q502.64-4.13 502.78-3.53 502.91-2.93 503.33-2.62 503.74-2.32 504.33-2.16 504.91-2 505.6-1.87 506.28-1.73 506.92-1.44L506.92-1.44 506.92 0 493.12 0 493.12-1.44Q493.54-1.73 494.06-1.86 494.59-1.98 495.07-2.15L495.07-2.15Q496.25-2.51 496.39-3.53 496.54-4.54 496.54-5.86L496.54-5.86 496.54-28.86Q496.54-31.57 495.9-32.08L495.9-32.08Q495.39-32.5 494.48-32.73 493.56-32.96 493.12-33.25L493.12-33.25 493.12-34.69 502.64-34.69ZM555.1-31.29Q554.32-31.91 553.18-32.23 552.03-32.54 550.21-32.54 548.39-32.54 547.41-32.35L547.41-32.35 547.41-34.69 555.64-34.69Q557.28-34.69 560.79-35.06L560.79-35.06 560.79-23.1 559.18-23.1Q558.3-24.02 557.89-25.5 557.47-26.98 557.18-27.92 556.89-28.86 556.39-29.76 555.89-30.66 555.1-31.29ZM545.39-34.69L545.39-5.54Q545.39-3.61 545.75-3.06 546.12-2.51 546.46-2.36 546.8-2.2 547.24-2.09 547.68-1.98 548.21-1.86 548.73-1.73 549.34-1.44L549.34-1.44 549.34 0 535.89 0 535.89-1.44Q536.48-1.81 537.22-2 537.97-2.2 538.28-2.37 538.6-2.54 538.82-2.91L538.82-2.91Q539.31-3.66 539.31-5.69L539.31-5.69 539.31-28.96Q539.31-31.01 538.95-31.57 538.6-32.13 538.29-32.29 537.99-32.45 537.6-32.57L537.6-32.57Q536.38-32.91 535.89-33.25L535.89-33.25 535.89-34.69 545.39-34.69ZM547.41-15.77L547.41-20.36 554.54-20.36 554.54-15.77 547.41-15.77ZM578.1-1.29L578.1 0.73Q571.85 0.29 567.77-4.93L567.77-4.93Q563.82-10.01 563.82-17.36L563.82-17.36Q563.82-24.66 567.77-29.74L567.77-29.74Q571.85-34.96 578.1-35.4L578.1-35.4 578.1-33.4Q574.51-33.03 572.7-29.59L572.7-29.59Q570.68-25.63 570.68-17.36L570.68-17.36Q570.68-5.2 575.05-2.34L575.05-2.34Q576.41-1.46 578.1-1.29L578.1-1.29ZM580.13 0.71L580.13-1.29Q585.59-1.86 587.01-10.01L587.01-10.01Q587.55-13.01 587.55-17.36L587.55-17.36Q587.55-29.47 583.18-32.32L583.18-32.32Q581.81-33.2 580.13-33.4L580.13-33.4 580.13-35.42Q586.42-34.99 590.48-29.79L590.48-29.79Q594.46-24.68 594.46-17.36 594.46-10.03 590.48-4.93L590.48-4.93Q586.42 0.27 580.13 0.71L580.13 0.71ZM610.35-34.69L611.25-34.69Q625.58-34.69 625.58-26.05L625.58-26.05Q625.58-22.53 622.99-20.19L622.99-20.19Q620.28-17.75 615.62-17.55L615.62-17.55 615.62-17.46Q618.16-16.85 619.55-14.89L619.55-14.89Q620.28-13.87 621.16-11.63 622.04-9.4 622.55-8.09 623.07-6.79 623.58-5.74L623.58-5.74Q624.73-3.37 625.61-3.37L625.61-3.37Q625.97-3.37 626.24-3.7 626.51-4.03 626.78-4.44L626.78-4.44Q627.54-5.49 628.15-5.49L628.15-5.49Q628.22-5.49 628.49-5.36 628.76-5.22 628.76-4.83 628.76-4.44 628.59-4L628.59-4Q627.19-1.78 626.49-1.1L626.49-1.1Q624.97 0.39 623.13 0.39 621.29 0.39 620.2-0.2 619.11-0.78 618.38-1.77 617.65-2.76 617.2-4.05 616.74-5.35 616.39-6.76 616.04-8.18 615.69-9.62 615.35-11.06 614.84-12.35L614.84-12.35Q613.67-15.26 611.59-16.28L611.59-16.28Q611.08-16.55 610.35-16.85L610.35-16.85 610.35-18.85Q617.26-18.85 618.72-22.73L618.72-22.73Q619.21-24.07 619.21-25.9L619.21-25.9Q619.21-29.2 617.28-31.03 615.35-32.86 611.37-32.86L611.37-32.86Q610.67-32.86 610.35-32.79L610.35-32.79 610.35-34.69ZM608.32-34.69L608.32-5.81Q608.32-4.2 608.42-3.54 608.52-2.88 608.87-2.59 609.22-2.29 609.71-2.14 610.2-1.98 610.74-1.86 611.28-1.73 611.74-1.44L611.74-1.44 611.74 0 598.8 0 598.8-1.44Q599.17-1.73 599.68-1.86 600.19-1.98 600.7-2.15L600.7-2.15Q601.93-2.51 602.07-3.53 602.22-4.54 602.22-5.86L602.22-5.86 602.22-28.86Q602.22-31.57 601.58-32.08L601.58-32.08Q601.07-32.5 600.16-32.73 599.24-32.96 598.8-33.25L598.8-33.25 598.8-34.69 608.32-34.69ZM658.85-13.26L659.59-11.01 652.16-11.01 652.77-13.26 658.85-13.26ZM653.29-28.44L654.75-24.49 649.01-7.35Q648.26-5.18 648.28-4.09 648.31-3 648.62-2.66 648.94-2.32 649.45-2.17 649.97-2.03 650.63-1.93 651.29-1.83 651.97-1.49L651.97-1.49 651.97 0 641.35 0 641.35-1.49Q641.86-1.78 642.42-1.95 642.98-2.12 643.5-2.34L643.5-2.34Q644.69-2.88 645.04-3.96L645.04-3.96 653.29-28.44ZM655.73-27L654.14-30.93Q652.82-31.4 652.36-31.86L652.36-31.86Q652.41-32.37 652.49-32.82 652.58-33.28 652.66-33.73 652.75-34.18 652.85-34.47L652.85-34.47Q657.49-35.45 658.22-35.45L658.22-35.45Q658.73-35.03 659.17-33.91L659.17-33.91 669.89-4.35Q670.43-2.88 671.5-2.34L671.5-2.34Q671.99-2.1 672.54-1.94 673.09-1.78 673.7-1.49L673.7-1.49 673.7 0 660.49 0 660.49-1.49Q661.05-1.76 661.66-1.87 662.27-1.98 662.78-2.1L662.78-2.1Q663.91-2.37 663.91-3.2L663.91-3.2Q663.91-3.93 662.74-7.15 661.56-10.38 660.66-12.89L660.66-12.89Q658.15-19.95 655.73-27L655.73-27ZM684.56 0L675.04 0 675.04-1.44Q675.48-1.73 676-1.86 676.53-1.98 676.99-2.15L676.99-2.15Q678.14-2.51 678.28-3.49L678.28-3.49Q678.46-4.47 678.46-6.01L678.46-6.01 678.46-28.71Q678.46-31.57 677.82-32.08L677.82-32.08Q677.31-32.5 676.39-32.73 675.48-32.96 675.04-33.25L675.04-33.25 675.04-34.69 688.15-34.69 688.15-33.25Q687.61-32.96 687.05-32.82 686.49-32.69 686-32.52L686-32.52Q684.85-32.1 684.73-31.2L684.73-31.2Q684.56-30.22 684.56-28.76L684.56-28.76 684.56 0ZM686.59 0L686.59-2.03Q686.95-2 687.34-2L687.34-2 688.15-2Q692.74-2 694.76-4.88L694.76-4.88Q695.67-6.2 696.18-7.9 696.69-9.59 696.91-10.21L696.91-10.21Q697.38-11.52 698.06-12.4L698.06-12.4 699.6-12.4 699.6 0 686.59 0ZM712.44 0L702.92 0 702.92-1.44Q703.36-1.73 703.88-1.86 704.41-1.98 704.87-2.15L704.87-2.15Q706.02-2.51 706.16-3.49L706.16-3.49Q706.33-4.47 706.33-6.01L706.33-6.01 706.33-28.71Q706.33-31.57 705.7-32.08L705.7-32.08Q705.19-32.5 704.27-32.73 703.36-32.96 702.92-33.25L702.92-33.25 702.92-34.69 716.03-34.69 716.03-33.25Q715.49-32.96 714.93-32.82 714.37-32.69 713.88-32.52L713.88-32.52Q712.73-32.1 712.61-31.2L712.61-31.2Q712.44-30.22 712.44-28.76L712.44-28.76 712.44 0ZM714.46 0L714.46-2.03Q714.83-2 715.22-2L715.22-2 716.03-2Q720.62-2 722.64-4.88L722.64-4.88Q723.55-6.2 724.06-7.9 724.57-9.59 724.79-10.21L724.79-10.21Q725.25-11.52 725.94-12.4L725.94-12.4 727.48-12.4 727.48 0 714.46 0ZM752.89-34.69L758.99-34.69 758.99-5.59Q758.99-3.66 759.41-3.11 759.82-2.56 760.17-2.4 760.53-2.25 760.97-2.15L760.97-2.15Q762.21-1.83 762.85-1.44L762.85-1.44 762.85 0 749.13 0 749.13-1.44Q749.66-1.78 750.53-2.01 751.4-2.25 751.75-2.39 752.11-2.54 752.37-2.88L752.37-2.88Q752.89-3.61 752.89-5.59L752.89-5.59 752.89-34.69ZM761.02-34.69L766.24-34.69Q767.24-34.69 769.59-35.06L769.59-35.06 769.59-23.51 767.93-23.51Q767.58-24.44 767.33-25.48 767.07-26.51 766.75-27.53 766.44-28.54 766.02-29.48 765.61-30.42 764.95-31.13L764.95-31.13Q763.48-32.69 761.02-32.69L761.02-32.69 761.02-34.69ZM742.32-35.01L742.36-35.06Q743.54-34.69 744.15-34.69L744.15-34.69 750.86-34.69 750.86-32.69Q747.34-32.69 745.88-29.44L745.88-29.44Q745.17-27.91 744.76-26.16 744.34-24.41 744.02-23.51L744.02-23.51 742.32-23.51 742.32-35.01ZM794.46-5.76L794.46-29.3Q794.46-31.1 794.1-31.63 793.73-32.15 793.41-32.3 793.09-32.45 792.73-32.57L792.73-32.57Q791.53-32.91 791.04-33.25L791.04-33.25 791.04-34.69 803.86-34.69 803.86-33.25Q803.2-32.96 802.6-32.79 802.01-32.62 801.54-32.35L801.54-32.35Q800.54-31.76 800.54-30.2L800.54-30.2 800.54-4.49Q800.54-2.93 801.54-2.34L801.54-2.34Q802.01-2.08 802.6-1.9 803.2-1.73 803.86-1.44L803.86-1.44 803.86 0 791.04 0 791.04-1.44Q793.88-1.83 794.31-4.05L794.31-4.05Q794.46-4.79 794.46-5.76L794.46-5.76ZM781.81-29.05L781.81-5.54Q781.81-2.88 782.84-2.34L782.84-2.34Q783.18-2.2 783.98-1.97 784.77-1.73 785.23-1.44L785.23-1.44 785.23 0 772.44 0 772.44-1.44Q773.1-1.73 773.68-1.9 774.27-2.08 774.73-2.34L774.73-2.34Q775.74-2.93 775.74-4.49L775.74-4.49 775.74-30.2Q775.74-31.76 774.73-32.35L774.73-32.35Q774.27-32.62 773.68-32.79 773.1-32.96 772.44-33.25L772.44-33.25 772.44-34.69 785.23-34.69 785.23-33.25Q784.67-32.89 783.89-32.67 783.11-32.45 782.8-32.29 782.5-32.13 782.28-31.76L782.28-31.76Q781.81-30.98 781.81-29.05L781.81-29.05ZM792.43-19.19L792.43-16.94 783.84-16.94 783.84-19.19 792.43-19.19ZM808.13-34.69L821.24-34.69 821.24-33.25Q820.53-32.96 819.9-32.79 819.26-32.62 818.8-32.35L818.8-32.35Q817.75-31.76 817.75-30.2L817.75-30.2 817.75-4.49Q817.75-2.93 818.8-2.34L818.8-2.34Q819.29-2.08 819.92-1.9 820.56-1.73 821.29-1.44L821.29-1.44 821.29 0 808.13 0 808.13-1.44Q808.84-1.73 809.47-1.9 810.11-2.08 810.6-2.34L810.6-2.34Q811.67-2.93 811.67-4.49L811.67-4.49 811.67-30.2Q811.67-31.76 810.6-32.35L810.6-32.35Q810.11-32.62 809.47-32.79 808.84-32.96 808.13-33.25L808.13-33.25 808.13-34.69ZM853.25-8.59L850.44-12.99 850.44-30.2Q850.44-31.52 849.22-32.23L849.22-32.23Q848.68-32.52 848.01-32.76 847.34-33.01 846.68-33.3L846.68-33.3 846.68-34.74 856.88-34.74 856.88-33.3Q856.27-33.01 855.63-32.76 854.98-32.52 854.47-32.23L854.47-32.23Q853.25-31.52 853.25-30.2L853.25-30.2 853.25-8.59ZM828.71-29.59L831.52-25.93 831.52-4.54Q831.52-3.2 832.79-2.54L832.79-2.54Q833.35-2.22 834.09-1.98 834.84-1.73 835.62-1.44L835.62-1.44 835.62 0 824.88 0 824.88-1.44Q825.56-1.73 826.24-1.98 826.93-2.22 827.46-2.54L827.46-2.54Q828.71-3.22 828.71-4.54L828.71-4.54 828.71-29.59ZM849.66 0.2L831.61-28.96Q829-32.03 826.39-32.81L826.39-32.81Q825.71-33.03 825.05-33.25L825.05-33.25 825.05-34.69 834.57-34.69 853.25-5.15 853.25 0.2 849.66 0.2ZM883.44-33.11L883.44-33.11Q884.3-33.11 884.71-34.4L884.71-34.4 886.79-34.4 886.79-22.24 885.15-22.24Q884.13-23.54 883.39-25.73 882.66-27.93 882.21-29.08 881.76-30.22 881.03-31.15L881.03-31.15Q879.39-33.18 876.39-33.35L876.39-33.35 876.39-35.42Q878.58-35.28 880.23-34.52 881.88-33.76 882.49-33.44 883.1-33.11 883.44-33.11ZM887.5-11.4L887.5-5.91Q887.5-3.66 888.3-1.9L888.3-1.9 887.37-1.34Q884.83-0.61 880.29-0.61L880.29-0.61Q880.05-0.61 879.19-0.29L879.19-0.29Q877.56 0.27 876.39 0.49L876.39 0.49 876.39-1.27Q879.15-1.42 880.32-3.47L880.32-3.47Q881.42-5.4 881.42-9.55L881.42-9.55Q881.42-11.82 881.27-12.72 881.12-13.62 880.71-13.98 880.29-14.33 879.72-14.54 879.15-14.75 878.49-14.87 877.83-14.99 877.24-15.21L877.24-15.21 877.24-16.85 890.03-16.85Q889.91-15.97 889.51-15.45 889.11-14.94 888.67-14.45L888.67-14.45Q887.5-13.16 887.5-11.4L887.5-11.4ZM874.36-35.4L874.36-33.23Q867.48-31.86 867.48-17.21L867.48-17.21Q867.48-5.25 871.68-2.44L871.68-2.44Q872.92-1.61 874.36-1.37L874.36-1.37 874.36 0.61Q868.06 0.61 864.3-4.3L864.3-4.3Q860.59-9.2 860.59-17.36L860.59-17.36Q860.59-24.66 864.4-29.74L864.4-29.74Q868.31-34.91 874.36-35.4L874.36-35.4ZM906.17-33.37L906.17-35.38Q907.98-35.21 909.26-34.55 910.54-33.89 911.02-33.62 911.49-33.35 911.82-33.35 912.15-33.35 912.37-33.5 912.59-33.64 912.76-33.84 912.93-34.03 913.05-34.27 913.18-34.5 913.3-34.69L913.3-34.69 915.54-34.69 915.54-23.24 913.79-23.24Q913.25-23.8 912.57-25.7 911.88-27.59 911.41-28.71 910.93-29.83 910.22-30.81L910.22-30.81Q908.66-32.98 906.17-33.37L906.17-33.37ZM901.23-0.13Q899.77-0.78 899.19-1.06 898.6-1.34 897.98-1.34 897.36-1.34 896.6 0L896.6 0 894.33 0 894.33-12.06 896.01-12.06Q896.55-11.5 896.98-10.52 897.41-9.55 897.88-8.41 898.36-7.28 898.92-6.08 899.48-4.88 900.29-3.86L900.29-3.86Q902.09-1.59 904.88-1.29L904.88-1.29 904.88 0.71Q902.68 0.51 901.23-0.13ZM906.9 0.73L906.9-1.32Q909.54-1.64 910.98-3.47L910.98-3.47Q912.25-5.1 912.25-7.21 912.25-9.33 911.49-10.61 910.74-11.89 909.5-12.88 908.27-13.87 906.68-14.67 905.1-15.48 903.45-16.27 901.8-17.07 900.23-17.93 898.65-18.8 897.43-19.92L897.43-19.92Q894.67-22.46 894.67-26.1L894.67-26.1Q894.67-29.79 897.19-32.4L897.19-32.4Q899.87-35.13 904.14-35.42L904.14-35.42 904.14-33.4Q901.12-33.01 900.07-30.3L900.07-30.3Q899.72-29.42 899.72-28.1 899.72-26.78 900.51-25.63 901.29-24.49 902.56-23.58 903.83-22.68 905.45-21.92 907.07-21.17 908.77-20.39 910.47-19.6 912.09-18.7 913.71-17.8 914.98-16.6L914.98-16.6Q917.82-13.89 917.82-10.06L917.82-10.06Q917.82-5.91 914.81-2.83L914.81-2.83Q911.66 0.44 906.9 0.73L906.9 0.73ZM944.57 0L935.07 0 935.07-1.44Q935.66-1.81 936.4-2 937.15-2.2 937.46-2.37 937.78-2.54 938-2.91L938-2.91Q938.49-3.66 938.49-5.69L938.49-5.69 938.49-28.96Q938.49-31.01 938.14-31.57 937.78-32.13 937.48-32.29 937.17-32.45 936.78-32.57L936.78-32.57Q935.56-32.91 935.07-33.25L935.07-33.25 935.07-34.69 944.57-34.69 944.57 0ZM946.59 0L946.59-2 947.06-1.98Q952.55-1.98 954.85-3.13L954.85-3.13Q957.26-4.35 958.26-7.96L958.26-7.96Q958.48-8.72 958.64-9.34 958.8-9.96 959-10.47L959-10.47Q959.36-11.55 960.02-12.21L960.02-12.21 961.61-12.21 961.61 0 946.59 0ZM946.59-34.69L955.63-34.69Q957.14-34.69 960.51-35.06L960.51-35.06 960.51-23.1 958.8-23.1Q957.95-24.19 957.48-25.56 957.02-26.93 956.53-28.22 956.04-29.52 955.55-30.3 955.07-31.08 954.33-31.62L954.33-31.62Q952.87-32.69 950.37-32.69 947.86-32.69 946.59-32.32L946.59-32.32 946.59-34.69ZM946.59-16.06L946.59-20.65 953.72-20.65 953.72-16.06 946.59-16.06ZM982.02-21.04L980.67-23.46Q981.89-25.24 982.79-26.54 983.68-27.83 984.26-28.76L984.26-28.76Q985.41-30.62 985.41-31.27 985.41-31.93 985.14-32.18 984.87-32.42 984.45-32.57 984.02-32.71 983.49-32.82 982.97-32.93 982.46-33.15L982.46-33.15 982.46-34.69 993.3-34.69 993.3-33.15Q992.81-32.86 991.81-32.62L991.81-32.62Q990.1-32.23 989.49-31.59L989.49-31.59Q987.36-29.27 983.85-23.8L983.85-23.8Q982.97-22.44 982.02-21.04L982.02-21.04ZM975.13-15.97L976.67-13.55Q975.33-11.52 974.35-10.08 973.37-8.64 972.72-7.64 972.06-6.64 971.65-6.01 971.25-5.37 971.03-4.96L971.03-4.96Q970.66-4.27 970.66-3.59 970.66-2.91 970.96-2.6 971.25-2.29 971.7-2.17 972.15-2.05 972.73-1.97 973.3-1.88 973.86-1.49L973.86-1.49 973.86 0 963.05 0 963.05-1.49Q963.46-1.83 964.29-2.08L964.29-2.08Q965.9-2.49 966.37-3L966.37-3Q967.3-4.03 967.73-4.69L967.73-4.69 975.13-15.97ZM983.16-5.44L968.35-30.05Q968.08-30.52 967.77-30.91 967.47-31.3 967.2-31.69L967.2-31.69Q966.76-32.25 965.96-32.46 965.17-32.67 964.68-32.79 964.19-32.91 963.78-33.15L963.78-33.15 963.78-34.69 976.77-34.69 976.77-33.3Q976.28-33.03 975.82-32.89 975.35-32.74 974.96-32.59L974.96-32.59Q974.11-32.28 974.11-31.59L974.11-31.59Q974.11-31.13 974.74-30.08L974.74-30.08 988.68-6.79Q989.32-5.69 990.31-4.33 991.29-2.98 991.77-2.66 992.25-2.34 992.67-2.17 993.1-2 993.49-1.88 993.88-1.76 994.2-1.49L994.2-1.49 994.2 0 980.87 0 980.87-1.49Q981.38-1.76 981.96-1.87 982.53-1.98 983.02-2.12L983.02-2.12Q984.14-2.47 984.14-3.34L984.14-3.34Q984.14-3.88 983.16-5.44L983.16-5.44ZM1010.02-1.29L1010.02 0.73Q1003.77 0.29 999.69-4.93L999.69-4.93Q995.74-10.01 995.74-17.36L995.74-17.36Q995.74-24.66 999.69-29.74L999.69-29.74Q1003.77-34.96 1010.02-35.4L1010.02-35.4 1010.02-33.4Q1006.43-33.03 1004.62-29.59L1004.62-29.59Q1002.6-25.63 1002.6-17.36L1002.6-17.36Q1002.6-5.2 1006.97-2.34L1006.97-2.34Q1008.33-1.46 1010.02-1.29L1010.02-1.29ZM1012.04 0.71L1012.04-1.29Q1017.51-1.86 1018.93-10.01L1018.93-10.01Q1019.47-13.01 1019.47-17.36L1019.47-17.36Q1019.47-29.47 1015.1-32.32L1015.1-32.32Q1013.73-33.2 1012.04-33.4L1012.04-33.4 1012.04-35.42Q1018.34-34.99 1022.4-29.79L1022.4-29.79Q1026.37-24.68 1026.37-17.36 1026.37-10.03 1022.4-4.93L1022.4-4.93Q1018.34 0.27 1012.04 0.71L1012.04 0.71ZM1039.92-34.69L1046.03-34.69 1046.03-5.59Q1046.03-3.66 1046.44-3.11 1046.86-2.56 1047.21-2.4 1047.56-2.25 1048-2.15L1048-2.15Q1049.25-1.83 1049.88-1.44L1049.88-1.44 1049.88 0 1036.16 0 1036.16-1.44Q1036.7-1.78 1037.57-2.01 1038.43-2.25 1038.79-2.39 1039.14-2.54 1039.41-2.88L1039.41-2.88Q1039.92-3.61 1039.92-5.59L1039.92-5.59 1039.92-34.69ZM1048.05-34.69L1053.28-34.69Q1054.28-34.69 1056.62-35.06L1056.62-35.06 1056.62-23.51 1054.96-23.51Q1054.62-24.44 1054.36-25.48 1054.11-26.51 1053.79-27.53 1053.47-28.54 1053.06-29.48 1052.64-30.42 1051.98-31.13L1051.98-31.13Q1050.52-32.69 1048.05-32.69L1048.05-32.69 1048.05-34.69ZM1029.35-35.01L1029.4-35.06Q1030.57-34.69 1031.18-34.69L1031.18-34.69 1037.9-34.69 1037.9-32.69Q1034.38-32.69 1032.92-29.44L1032.92-29.44Q1032.21-27.91 1031.79-26.16 1031.38-24.41 1031.06-23.51L1031.06-23.51 1029.35-23.51 1029.35-35.01ZM1059.77-34.69L1072.88-34.69 1072.88-33.25Q1072.17-32.96 1071.54-32.79 1070.9-32.62 1070.44-32.35L1070.44-32.35Q1069.39-31.76 1069.39-30.2L1069.39-30.2 1069.39-4.49Q1069.39-2.93 1070.44-2.34L1070.44-2.34Q1070.93-2.08 1071.56-1.9 1072.2-1.73 1072.93-1.44L1072.93-1.44 1072.93 0 1059.77 0 1059.77-1.44Q1060.48-1.73 1061.11-1.9 1061.75-2.08 1062.23-2.34L1062.23-2.34Q1063.31-2.93 1063.31-4.49L1063.31-4.49 1063.31-30.2Q1063.31-31.76 1062.23-32.35L1062.23-32.35Q1061.75-32.62 1061.11-32.79 1060.48-32.96 1059.77-33.25L1059.77-33.25 1059.77-34.69ZM1100.76-33.01L1100.76-33.01Q1101.64-33.01 1102.2-34.3L1102.2-34.3 1104.35-34.3 1104.35-22.09 1102.69-22.09Q1101.71-23.02 1100.95-25.13 1100.2-27.25 1099.71-28.47 1099.22-29.69 1098.49-30.71L1098.49-30.71Q1096.88-32.98 1094.02-33.37L1094.02-33.37 1094.02-35.38Q1097.09-35.08 1099.93-33.33L1099.93-33.33Q1100.44-33.01 1100.76-33.01ZM1094.02 0.73L1094.02-1.59Q1099.39-1.59 1101.66-6.96L1101.66-6.96Q1102.44-8.81 1102.78-11.4L1102.78-11.4 1105.1-10.84Q1104.35-5.15 1101.61-2.33 1098.88 0.49 1094.02 0.73L1094.02 0.73ZM1091.99-1.73L1091.99 0.73Q1085.38 0.39 1081.35-4.47L1081.35-4.47Q1077.3-9.38 1077.3-17.36L1077.3-17.36Q1077.3-25.12 1081.49-30.22L1081.49-30.22Q1085.62-35.25 1091.99-35.45L1091.99-35.45 1091.99-33.4Q1086.6-32.89 1084.81-24.73L1084.81-24.73Q1084.16-21.7 1084.16-17.47 1084.16-13.23 1084.81-10.42 1085.47-7.62 1086.57-5.79L1086.57-5.79Q1088.57-2.39 1091.99-1.73L1091.99-1.73Z" opacity="1" transform="matrix(1,0,0,1,0,0)" fill="#ffffff" class="slogan-text-1" data-fill-palette-color="secondary" id="text-1"></path></svg></g></svg></g></svg></g></svg></g><g transform="matrix(1,0,0,1,404.88040187823407,0)"><svg viewBox="0 0 128.50594575427124 111.2910768690441" height="111.2910768690441" width="128.50594575427124"><g><svg xmlns="http://www.w3.org/2000/svg" xmlns:xlink="http://www.w3.org/1999/xlink" version="1.1" x="0" y="0" viewBox="9.690000534057617 15.09000015258789 80.6199951171875 69.82000732421875" enable-background="new 0 0 100 100" xml:space="preserve" height="111.2910768690441" width="128.50594575427124" class="icon-icon-0" data-fill-palette-color="accent" id="icon-0"><path d="M70.154 15.09H29.846L9.69 50l20.156 34.91h40.308L90.31 50 70.154 15.09zM34.591 57.78L18.344 52h16.247V57.78zM37.591 44.662l10.908 6.299v12.501l-10.908-6.299V44.662zM60.988 42.017l-10.989 6.346-10.99-6.346 10.99-6.345L60.988 42.017zM51.499 50.961l10.908-6.299v12.501l-10.908 6.299V50.961zM50.934 32.748l12.723-10.779L55.804 35.56 50.934 32.748zM64.509 59.414l3.528 18.211L59.269 62.44 64.509 59.414zM65.407 41.104l-6.139-3.544 9.62-16.663L84.834 48.5 65.407 41.104zM32.156 19.09h33.157L50.011 32.215l-0.012-0.007-14.557 8.404L32.156 19.09zM31.333 20.5l3.236 20.958 0.021-0.003V48H15.464L31.333 20.5zM15.464 52l19.126 6.847v0.049l14.492 8.368L31.92 80.501 15.464 52zM33.025 80.91l17.108-13.195 5.671-3.274 9.51 16.47H33.025zM69.229 78.516l-3.821-19.725V42.263L85.69 50 69.229 78.516z" fill="#ffffff" data-fill-palette-color="accent"></path></svg></g></svg></g></svg></g><defs></defs></svg><rect width="395.52" height="82.52525944584528" fill="none" stroke="none" visibility="hidden"></rect></g></svg></g></svg>